<?xml version="1.0" encoding="UTF-8" standalone="no"?>
<!-- Created with Inkscape (http://www.inkscape.org/) -->

<svg width="18" height="18" viewBox="0 0 11.493062 11.209467" xmlns="http://www.w3.org/2000/svg"><path d="M 5.746044,0 C 2.572808,0 0,2.572808 0,5.74675 c 0,2.538941 1.646414,4.69265 3.929944,5.452886 0.287514,0.05256 0.392289,-0.124883 0.392289,-0.277283 0,-0.136173 -0.0049,-0.49777 -0.0078,-0.977195 C 2.715997,10.292291 2.378741,9.174691 2.378741,9.174691 2.117333,8.511116 1.740566,8.334375 1.740566,8.334375 1.218808,7.977716 1.780076,7.984772 1.780076,7.984772 2.356868,8.025692 2.660257,8.577086 2.660257,8.577086 3.172843,9.45515 4.005398,9.201503 4.332776,9.054747 4.384986,8.683272 4.533154,8.429978 4.697548,8.286397 3.421551,8.141405 2.079937,7.648222 2.079937,5.446183 c 0,-0.627239 0.224014,-1.140178 0.591609,-1.541991 -0.05927,-0.145345 -0.25647,-0.729545 0.05609,-1.520825 0,0 0.4826,-0.154517 1.580445,0.589138 C 4.766339,2.845153 5.258111,2.7813 5.746709,2.779183 6.2346,2.781283 6.726372,2.845153 7.185336,2.972505 8.282475,2.22885 8.764017,2.383367 8.764017,2.383367 c 0.313619,0.79128 0.116416,1.37548 0.05715,1.520825 0.3683,0.401813 0.590903,0.914752 0.590903,1.541991 0,2.207683 -1.343731,2.693458 -2.623961,2.835628 0.206375,0.177447 0.390172,0.528108 0.390172,1.06433 0,0.767998 -0.0071,1.387828 -0.0071,1.576212 0,0.153811 0.103364,0.332669 0.395111,0.276577 2.281767,-0.761647 3.92677,-2.913944 3.92677,-5.45218 C 11.493062,2.572808 8.919901,0 5.745959,0"/></svg>
